<svg width="274" height="255" viewBox="0 0 274 255" fill="none" xmlns="http://www.w3.org/2000/svg">
<g filter="url(#filter0_d_37_1599)">
<rect x="48" y="28" width="178" height="159" rx="24" fill="url(#paint0_linear_37_1599)" shape-rendering="crispEdges"/>
</g>
<path d="M185.018 111.515C184.585 111.082 184.043 110.774 183.448 110.625C182.854 110.477 182.231 110.493 181.645 110.672C175.213 112.617 168.374 112.78 161.857 111.144C155.34 109.508 149.389 106.134 144.638 101.382C139.886 96.6294 136.513 90.6769 134.877 84.1584C133.242 77.64 133.405 70.7997 135.349 64.3666C135.53 63.7804 135.547 63.1561 135.399 62.5609C135.251 61.9656 134.944 61.4219 134.511 60.9882C134.077 60.5545 133.533 60.2472 132.938 60.0994C132.343 59.9516 131.719 59.9689 131.133 60.1494C122.241 62.8739 114.434 68.3342 108.824 75.7532C103.918 82.2682 100.925 90.0225 100.182 98.1449C99.4395 106.267 100.976 114.436 104.619 121.733C108.261 129.031 113.866 135.167 120.804 139.454C127.742 143.741 135.737 146.007 143.892 146C153.405 146.029 162.665 142.935 170.252 137.194C177.67 131.583 183.129 123.775 185.853 114.881C186.031 114.297 186.048 113.675 185.901 113.083C185.754 112.49 185.449 111.948 185.018 111.515ZM166.196 131.805C159.052 137.187 150.204 139.807 141.281 139.182C132.359 138.557 123.962 134.729 117.638 128.404C111.313 122.078 107.485 113.68 106.86 104.756C106.234 95.8317 108.853 86.9819 114.234 79.8355C117.739 75.2052 122.271 71.4518 127.473 68.8707C127.177 70.9507 127.027 73.0491 127.026 75.1501C127.038 86.7786 131.662 97.9272 139.883 106.15C148.104 114.372 159.25 118.997 170.876 119.009C172.981 119.009 175.083 118.859 177.167 118.562C174.584 123.766 170.828 128.299 166.196 131.805Z" fill="white"/>
<path d="M227.04 70.5H183.905C183.015 69.3532 182.5 67.9931 182.5 66.5339C182.5 62.622 186.231 59.3233 191 59.3233H191H191H191H191H191H191H191H191H191H191H191H191H191H191H191H191H191H191H191H191H191H191H191H191H191H191H191H191H191H191.001H191.001H191.001H191.001H191.001H191.001H191.001H191.001H191.001H191.001H191.001H191.001H191.001H191.001H191.001H191.001H191.001H191.001H191.001H191.001H191.001H191.001H191.001H191.001H191.001H191.001H191.001H191.001H191.001H191.001H191.001H191.001H191.001H191.001H191.001H191.001H191.002H191.002H191.002H191.002H191.002H191.002H191.002H191.002H191.002H191.002H191.002H191.002H191.002H191.002H191.002H191.002H191.002H191.002H191.002H191.002H191.002H191.002H191.002H191.002H191.002H191.002H191.002H191.002H191.002H191.002H191.002H191.002H191.002H191.003H191.003H191.003H191.003H191.003H191.003H191.003H191.003H191.003H191.003H191.003H191.003H191.003H191.003H191.003H191.003H191.003H191.003H191.003H191.003H191.003H191.003H191.003H191.003H191.003H191.003H191.003H191.003H191.003H191.003H191.004H191.004H191.004H191.004H191.004H191.004H191.004H191.004H191.004H191.004H191.004H191.004H191.004H191.004H191.004H191.004H191.004H191.004H191.004H191.004H191.004H191.004H191.004H191.004H191.004H191.004H191.004H191.004H191.004H191.005H191.005H191.005H191.005H191.005H191.005H191.005H191.005H191.005H191.005H191.005H191.005H191.005H191.005H191.005H191.005H191.005H191.005H191.005H191.005H191.005H191.005H191.005H191.005H191.005H191.005H191.005H191.006H191.006H191.006H191.006H191.006H191.006H191.006H191.006H191.006H191.006H191.006H191.006H191.006H191.006H191.006H191.006H191.006H191.006H191.006H191.006H191.006H191.006H191.006H191.006H191.006H191.006H191.007H191.007H191.007H191.007H191.007H191.007H191.007H191.007H191.007H191.007H191.007H191.007H191.007H191.007H191.007H191.007H191.007H191.007H191.007H191.007H191.007H191.007H191.007H191.007H191.007H191.008H191.008H191.008H191.008H191.008H191.008H191.008H191.008H191.008H191.008H191.008H191.008H191.008H191.008H191.008H191.008H191.008H191.008H191.008H191.008H191.008H191.008H191.008H191.008H191.009H191.009H191.009H191.009H191.009H191.009H191.009H191.009H191.009H191.009H191.009H191.009H191.009H191.009H191.009H191.009H191.009H191.009H191.009H191.009H191.009H191.009H191.009H191.009H191.01H191.01H191.01H191.01H191.01H191.01H191.01H191.01H191.01H191.01H191.01H191.01H191.01H191.01H191.01H191.01H191.01H191.01H191.01H191.01H191.01H191.01H191.01H191.011H191.011H191.011H191.011H191.011H191.011H191.011H191.011H191.011H191.011H191.011H191.011H191.011H191.011H191.011H191.011H191.011H191.011H191.011H191.011H191.011H191.011H191.011H191.012H191.012H191.012H191.012H191.012H191.012H191.012H191.012H191.012H191.012H191.012H191.012H191.012H191.012H191.012H191.012H191.012H191.012H191.012H191.012H191.012H191.012H191.013H191.013H191.013H191.013H191.013H191.013H191.013H191.013H191.013H191.013H191.013H191.013H191.013H191.013H191.013H191.013H191.013H191.013H191.013H191.013H191.013H191.013H191.014H191.014H191.014H191.014H191.014H191.014H191.014H191.014H191.014H191.014H191.014H191.014H191.014H191.014H191.014H191.014H191.014H191.014H191.014H191.014H191.014H191.014H191.015H191.015H191.015H191.015H191.015H191.015H191.015H191.015H191.015H191.015H191.015H191.015H191.015H191.015H191.015H191.015H191.015H191.015H191.015H191.015H191.015H191.016H191.016H191.016H191.016H191.016H191.016H191.016H191.016H191.016H191.016H191.016H191.016H191.016H191.016H191.016H191.016H191.016H191.016H191.016H191.016H191.016H191.016H191.017H191.017H191.017H191.017H191.017H191.017H191.017H191.017H191.017H191.017H191.017H191.017H191.017H191.017H191.017H191.017H191.017H191.017H191.017H191.017H191.017H191.018H191.018H191.018H191.018H191.018H191.018H191.018H191.018H191.018H191.018H191.018H191.018H191.018H191.018H191.018H191.018H191.018H191.018H191.018H191.018H191.018H191.019H191.019H191.019H191.019H191.019H191.019H191.019H191.019H191.019H191.019H191.019H191.019H191.019H191.019H191.019H191.019H191.019H191.019H191.019H191.019H191.019H191.02H191.02H191.02H191.02H191.02H191.02H191.02H191.02H191.02H191.02H191.02H191.473L191.518 58.8721C191.71 56.9121 193.658 55.2633 196.172 55.2633C196.392 55.2633 196.609 55.2818 196.834 55.3084L197.241 55.3565L197.368 54.9672C198.574 51.2782 202.564 48.5 207.383 48.5C213.201 48.5 217.778 52.5239 217.778 57.3346C217.778 57.3687 217.777 57.4038 217.775 57.4508L217.775 57.4556C217.773 57.4984 217.77 57.5527 217.77 57.6088V58.2368L218.382 58.0961C219.116 57.9273 219.889 57.8346 220.684 57.8346C225.627 57.8346 229.5 61.2547 229.5 65.3159C229.5 67.3147 228.575 69.1452 227.04 70.5Z" fill="white" stroke="black"/>
<path d="M98.0881 151.792V152.336L98.6298 152.291C98.9924 152.26 99.3646 152.245 99.7373 152.245C105.76 152.245 110.5 156.415 110.5 161.414V161.421C110.5 161.782 110.469 162.143 110.414 162.5H34.523C34.8226 159.255 38.0113 156.594 42.0448 156.594H42.0451H42.0454H42.0457H42.0461H42.0464H42.0467H42.047H42.0474H42.0477H42.048H42.0483H42.0487H42.049H42.0493H42.0496H42.05H42.0503H42.0506H42.051H42.0513H42.0516H42.0519H42.0523H42.0526H42.0529H42.0532H42.0536H42.0539H42.0542H42.0546H42.0549H42.0552H42.0556H42.0559H42.0562H42.0565H42.0569H42.0572H42.0575H42.0579H42.0582H42.0585H42.0589H42.0592H42.0595H42.0599H42.0602H42.0605H42.0609H42.0612H42.0615H42.0618H42.0622H42.0625H42.0628H42.0632H42.0635H42.0639H42.0642H42.0645H42.0649H42.0652H42.0655H42.0659H42.0662H42.0665H42.0669H42.0672H42.0675H42.0679H42.0682H42.0685H42.0689H42.0692H42.0696H42.0699H42.0702H42.0706H42.0709H42.0712H42.0716H42.0719H42.0723H42.0726H42.0729H42.0733H42.0736H42.0739H42.0743H42.0746H42.075H42.0753H42.0756H42.076H42.0763H42.0767H42.077H42.0773H42.0777H42.078H42.0784H42.0787H42.079H42.0794H42.0797H42.0801H42.0804H42.0807H42.0811H42.0814H42.0818H42.0821H42.0824H42.0828H42.0831H42.0835H42.0838H42.0842H42.0845H42.0848H42.0852H42.0855H42.0859H42.0862H42.0866H42.0869H42.0872H42.0876H42.0879H42.0883H42.0886H42.089H42.0893H42.0896H42.09H42.0903H42.0907H42.091H42.0914H42.0917H42.0921H42.0924H42.0927H42.0931H42.0934H42.0938H42.0941H42.0945H42.0948H42.0952H42.0955H42.0959H42.0962H42.0965H42.0969H42.0972H42.0976H42.0979H42.0983H42.0986H42.099H42.0993H42.0997H42.1H42.1004H42.1007H42.1011H42.1014H42.1017H42.1021H42.1024H42.1028H42.1031H42.1035H42.1038H42.1042H42.1045H42.1049H42.1052H42.1056H42.1059H42.1063H42.1066H42.107H42.1073H42.1077H42.108H42.1084H42.1087H42.109H42.1094H42.1097H42.1101H42.1104H42.1108H42.1111H42.1115H42.1118H42.1122H42.1125H42.1129H42.1132H42.1136H42.1139H42.1143H42.1146H42.115H42.1153H42.1157H42.116H42.1164H42.1167H42.1171H42.1174H42.1178H42.1181H42.1185H42.1188H42.1192H42.1195H42.1199H42.1202H42.1206H42.1209H42.1213H42.1216H42.122H42.1223H42.1227H42.123H42.1234H42.1237H42.1241H42.1244H42.1248H42.1251H42.1255H42.1258H42.1262H42.1265H42.1269H42.1272H42.1276H42.1279H42.1283H42.1286H42.129H42.1293H42.1297H42.13H42.1304H42.1307H42.1311H42.1314H42.1318H42.1321H42.1325H42.1328H42.1332H42.1335H42.1339H42.1342H42.1346H42.1349H42.1353H42.1356H42.136H42.1363H42.1367H42.137H42.1374H42.1377H42.1381H42.1384H42.1388H42.1391H42.1395H42.1398H42.1402H42.1405H42.1409H42.1412H42.1416H42.1419H42.1423H42.1426H42.143H42.1433H42.1437H42.144H42.1444H42.1447H42.1451H42.1454H42.1458H42.1461H42.1465H42.1468H42.1472H42.1475H42.1479H42.1482H42.1486H42.1489H42.1493H42.1496H42.15H42.1503H42.1507H42.151H42.1514H42.1517H42.1521H42.1524H42.1528H42.1531H42.1534H42.1538H42.1541H42.1545H42.1548H42.1552H42.1555H42.1559H42.1562H42.1566H42.1569H42.1573H42.1576H42.158H42.1583H42.1587H42.159H42.1594H42.1597H42.1601H42.1604H42.1608H42.1611H42.1615H42.1618H42.1621H42.1625H42.1628H42.1632H42.1635H42.1639H42.1642H42.1646H42.1649H42.1653H42.1656H42.166H42.1663H42.1667H42.167H42.1673H42.1677H42.168H42.1684H42.1687H42.1691H42.1694H42.1698H42.1701H42.1705H42.1708H42.1711H42.1715H42.1718H42.1722H42.1725H42.1729H42.1732H42.1736H42.1739H42.1742H42.1746H42.1749H42.1753H42.1756H42.176H42.1763H42.1767H42.177H42.1773H42.1777H42.178H42.1784H42.1787H42.1791H42.1794H42.1797H42.1801H42.1804H42.1808H42.1811H42.1814H42.1818H42.1821H42.1825H42.1828H42.1832H42.1835H42.1838H42.1842H42.1845H42.1849H42.1852H42.1855H42.1859H42.1862H42.1866H42.1869H42.1872H42.1876H42.1879H42.1883H42.1886H42.1889H42.1893H42.1896H42.19H42.1903H42.1906H42.191H42.1913H42.1916H42.192H42.1923H42.1927H42.193H42.1933H42.1937H42.194H42.1943H42.1947H42.195H42.1954H42.1957H42.196H42.1964H42.1967H42.197H42.1974H42.1977H42.198H42.1984H42.1987H42.199H42.1994H42.1997H42.2001H42.2004H42.2007H42.2011H42.2014H42.2017H42.2021H42.2024H42.2027H42.2031H42.2034H42.2037H42.2041H42.2044H42.2047H42.205H42.2054H42.2057H42.206H42.2064H42.2067H42.207H42.2074H42.2077H42.208H42.2084H42.2087H42.209H42.2093H42.2097H42.21H42.2103H42.2107H42.211H42.2113H42.2116H42.212H42.2123H42.2126H42.213H42.2133H42.2136H42.2139H42.2143H42.2146H42.2149H42.2152H42.2156H42.2159H42.2162H42.2165H42.2169H42.2172H42.2175H42.2178H42.2182H42.2185H42.2188H42.2191H42.2195H42.8384L42.7083 155.989C42.6044 155.506 42.5448 155.012 42.5448 154.507C42.5448 150.164 46.6689 146.523 51.9284 146.523C52.1382 146.523 52.3509 146.537 52.5837 146.553L53.1179 146.59V146.054V146.054V146.054V146.054V146.054V146.054V146.054V146.054V146.054V146.054V146.054V146.054V146.054V146.054V146.054V146.054V146.054V146.054V146.054V146.054V146.054V146.053V146.053V146.053V146.053V146.053V146.053V146.053V146.053V146.053V146.053V146.053V146.053V146.053V146.053V146.053V146.053V146.053V146.053V146.053V146.052V146.052V146.052V146.052V146.052V146.052V146.052V146.052V146.052V146.052V146.052V146.052V146.052V146.052V146.052V146.052V146.052V146.052V146.051V146.051V146.051V146.051V146.051V146.051V146.051V146.051V146.051V146.051V146.051V146.051V146.051V146.051V146.051V146.051V146.051V146.051V146.05V146.05V146.05V146.05V146.05V146.05V146.05V146.05V146.05V146.05V146.05V146.05V146.05V146.05V146.05V146.05V146.05V146.049V146.049V146.049V146.049V146.049V146.049V146.049V146.049V146.049V146.049V146.049V146.049V146.049V146.049V146.049V146.049V146.048V146.048V146.048V146.048V146.048V146.048V146.048V146.048V146.048V146.048V146.048V146.048V146.048V146.048V146.048V146.048V146.047V146.047V146.047V146.047V146.047V146.047V146.047V146.047V146.047V146.047V146.047V146.047V146.047V146.047V146.047V146.047V146.046V146.046V146.046V146.046V146.046V146.046V146.046V146.046V146.046V146.046V146.046V146.046V146.046V146.046V146.046V146.045V146.045V146.045V146.045V146.045V146.045V146.045V146.045V146.045V146.045V146.045V146.045V146.045V146.045V146.045V146.044V146.044V146.044V146.044V146.044V146.044V146.044V146.044V146.044V146.044V146.044V146.044V146.044V146.044V146.044V146.043V146.043V146.043V146.043V146.043V146.043V146.043V146.043V146.043V146.043V146.043V146.043V146.043V146.043V146.043V146.042V146.042V146.042V146.042V146.042V146.042V146.042V146.042V146.042V146.042V146.042V146.042V146.042V146.042V146.042V146.041V146.041V146.041V146.041V146.041V146.041V146.041V146.041V146.041V146.041V146.041V146.041V146.041V146.041V146.04V146.04V146.04V146.04V146.04V146.04V146.04V146.04V146.04V146.04V146.04V146.04V146.04V146.04V146.04V146.039V146.039V146.039V146.039V146.039V146.039V146.039V146.039V146.039V146.039V146.039V146.039V146.039V146.039V146.038V146.038V146.038V146.038V146.038V146.038V146.038V146.038V146.038V146.038V146.038V146.038V146.038V146.038V146.037V146.037V146.037V146.037V146.037V146.037V146.037V146.037V146.037V146.037V146.037V146.037V146.037V146.037V146.037V146.036V146.036V146.036V146.036V146.036V146.036V146.036V146.036V146.036V146.036V146.036V146.036V146.036V146.036V146.035V146.035V146.035V146.035V146.035V146.035V146.035V146.035V146.035V146.035V146.035V146.035V146.035V146.035V146.035V146.034V146.034V146.034V146.034V146.034V146.034V146.034V146.034V146.034V146.034V146.034V146.034V146.034V146.034V146.034V146.033V146.033V146.033V146.033V146.033V146.033V146.033V146.033V146.033V146.033V146.033V146.033V146.033V146.033V146.033V146.032V146.032V146.032V146.032V146.032V146.032V146.032V146.032V146.032V146.032V146.032V146.032V146.032V146.032V146.032V146.031V146.031V146.031V146.031V146.031V146.031V146.031V146.031V146.031V146.031V146.031V146.031V146.031V146.031V146.031V146.03V146.03V146.03V146.03V146.03V146.03V146.03V146.03V146.03V146.03V146.03V146.03V146.03V146.03V146.03V146.03V146.029V146.029V146.029V146.029V146.029V146.029V146.029V146.029V146.029V146.029V146.029V146.029V146.029V146.029V146.029V146.029V146.028V146.028V146.028V146.028V146.028V146.028V146.028V146.028V146.028V146.028V146.028V146.028V146.028V146.028V146.028V146.028V146.028V146.027V146.027V146.027V146.027V146.027V146.027V146.027V146.027V146.027V146.027V146.027V146.027V146.027V146.027V146.027V146.027V146.027V146.026V146.026V146.026V146.026V146.026V146.026V146.026V146.026V146.026V146.026V146.026V146.026V146.026V146.026V146.026V146.026V146.026V146.026V146.025V146.025V146.025V146.025V146.025V146.025V146.025V146.025V146.025V146.025V146.025V146.025V146.025V146.025V146.025V146.025V146.025V146.025V146.025V146.024V146.024V146.024V146.024V146.024V146.024V146.024V146.024V146.024V146.024V146.024V146.024V146.024V146.024V146.024V146.024V146.024V146.024V146.024V146.024V146.023V146.023V146.023V146.023V146.023V146.023V146.023V146.023V146.023V146.023V146.023V146.023V146.023C53.1179 139.178 59.6141 133.5 67.7881 133.5C73.9113 133.5 79.1195 136.696 81.3234 141.184L81.5023 141.548L81.8957 141.448C83.0334 141.158 84.2332 140.998 85.4866 140.998C92.5204 140.998 98.0881 145.879 98.0881 151.745V151.745V151.745V151.745V151.745V151.746V151.746V151.746V151.746V151.746V151.746V151.746V151.746V151.746V151.746V151.746V151.747V151.747V151.747V151.747V151.747V151.747V151.747V151.747V151.747V151.747V151.747V151.748V151.748V151.748V151.748V151.748V151.748V151.748V151.748V151.748V151.748V151.748V151.749V151.749V151.749V151.749V151.749V151.749V151.749V151.749V151.749V151.749V151.75V151.75V151.75V151.75V151.75V151.75V151.75V151.75V151.75V151.75V151.75V151.751V151.751V151.751V151.751V151.751V151.751V151.751V151.751V151.751V151.751V151.751V151.752V151.752V151.752V151.752V151.752V151.752V151.752V151.752V151.752V151.752V151.752V151.753V151.753V151.753V151.753V151.753V151.753V151.753V151.753V151.753V151.753V151.753V151.754V151.754V151.754V151.754V151.754V151.754V151.754V151.754V151.754V151.754V151.755V151.755V151.755V151.755V151.755V151.755V151.755V151.755V151.755V151.755V151.755V151.756V151.756V151.756V151.756V151.756V151.756V151.756V151.756V151.756V151.756V151.756V151.757V151.757V151.757V151.757V151.757V151.757V151.757V151.757V151.757V151.757V151.757V151.758V151.758V151.758V151.758V151.758V151.758V151.758V151.758V151.758V151.758V151.758V151.759V151.759V151.759V151.759V151.759V151.759V151.759V151.759V151.759V151.759V151.759V151.76V151.76V151.76V151.76V151.76V151.76V151.76V151.76V151.76V151.76V151.761V151.761V151.761V151.761V151.761V151.761V151.761V151.761V151.761V151.761V151.761V151.762V151.762V151.762V151.762V151.762V151.762V151.762V151.762V151.762V151.762V151.762V151.763V151.763V151.763V151.763V151.763V151.763V151.763V151.763V151.763V151.763V151.763V151.764V151.764V151.764V151.764V151.764V151.764V151.764V151.764V151.764V151.764V151.764V151.765V151.765V151.765V151.765V151.765V151.765V151.765V151.765V151.765V151.765V151.766V151.766V151.766V151.766V151.766V151.766V151.766V151.766V151.766V151.766V151.766V151.767V151.767V151.767V151.767V151.767V151.767V151.767V151.767V151.767V151.767V151.767V151.768V151.768V151.768V151.768V151.768V151.768V151.768V151.768V151.768V151.768V151.768V151.769V151.769V151.769V151.769V151.769V151.769V151.769V151.769V151.769V151.769V151.769V151.77V151.77V151.77V151.77V151.77V151.77V151.77V151.77V151.77V151.77V151.771V151.771V151.771V151.771V151.771V151.771V151.771V151.771V151.771V151.771V151.771V151.772V151.772V151.772V151.772V151.772V151.772V151.772V151.772V151.772V151.772V151.772V151.773V151.773V151.773V151.773V151.773V151.773V151.773V151.773V151.773V151.773V151.773V151.774V151.774V151.774V151.774V151.774V151.774V151.774V151.774V151.774V151.774V151.774V151.775V151.775V151.775V151.775V151.775V151.775V151.775V151.775V151.775V151.775V151.775V151.776V151.776V151.776V151.776V151.776V151.776V151.776V151.776V151.776V151.776V151.777V151.777V151.777V151.777V151.777V151.777V151.777V151.777V151.777V151.777V151.777V151.778V151.778V151.778V151.778V151.778V151.778V151.778V151.778V151.778V151.778V151.778V151.779V151.779V151.779V151.779V151.779V151.779V151.779V151.779V151.779V151.779V151.779V151.78V151.78V151.78V151.78V151.78V151.78V151.78V151.78V151.78V151.78V151.78V151.781V151.781V151.781V151.781V151.781V151.781V151.781V151.781V151.781V151.781V151.782V151.782V151.782V151.782V151.782V151.782V151.782V151.782V151.782V151.782V151.782V151.783V151.783V151.783V151.783V151.783V151.783V151.783V151.783V151.783V151.783V151.783V151.784V151.784V151.784V151.784V151.784V151.784V151.784V151.784V151.784V151.784V151.784V151.785V151.785V151.785V151.785V151.785V151.785V151.785V151.785V151.785V151.785V151.785V151.786V151.786V151.786V151.786V151.786V151.786V151.786V151.786V151.786V151.786V151.787V151.787V151.787V151.787V151.787V151.787V151.787V151.787V151.787V151.787V151.787V151.788V151.788V151.788V151.788V151.788V151.788V151.788V151.788V151.788V151.788V151.788V151.789V151.789V151.789V151.789V151.789V151.789V151.789V151.789V151.789V151.789V151.789V151.79V151.79V151.79V151.79V151.79V151.79V151.79V151.79V151.79V151.79V151.79V151.791V151.791V151.791V151.791V151.791V151.791V151.791V151.791V151.791V151.791V151.792V151.792V151.792V151.792V151.792V151.792V151.792V151.792V151.792V151.792V151.792Z" fill="white" stroke="black"/>
<defs>
<filter id="filter0_d_37_1599" x="0" y="0" width="274" height="255" filterUnits="userSpaceOnUse" color-interpolation-filters="sRGB">
<feFlood flood-opacity="0" result="BackgroundImageFix"/>
<feColorMatrix in="SourceAlpha" type="matrix" values="0 0 0 0 0 0 0 0 0 0 0 0 0 0 0 0 0 0 127 0" result="hardAlpha"/>
<feOffset dy="20"/>
<feGaussianBlur stdDeviation="24"/>
<feComposite in2="hardAlpha" operator="out"/>
<feColorMatrix type="matrix" values="0 0 0 0 0.0705882 0 0 0 0 0.2 0 0 0 0 0.345098 0 0 0 0.2 0"/>
<feBlend mode="normal" in2="BackgroundImageFix" result="effect1_dropShadow_37_1599"/>
<feBlend mode="normal" in="SourceGraphic" in2="effect1_dropShadow_37_1599" result="shape"/>
</filter>
<linearGradient id="paint0_linear_37_1599" x1="137" y1="28" x2="137" y2="187" gradientUnits="userSpaceOnUse">
<stop stop-color="#3F3D8C"/>
<stop offset="1" stop-color="#557DE8"/>
</linearGradient>
</defs>
</svg>
