<svg width="283" height="258" viewBox="0 0 283 258" fill="none" xmlns="http://www.w3.org/2000/svg">
<g filter="url(#filter0_d_37_1602)">
<rect x="48" y="28" width="187" height="162" rx="24" fill="url(#paint0_linear_37_1602)" shape-rendering="crispEdges"/>
</g>
<path d="M62.7698 131.929L62.6824 132.584L63.3366 132.49C63.7417 132.432 64.1425 132.394 64.5517 132.394C68.4668 132.394 71.5 135.089 71.5 138.255C71.5 139.911 70.6738 141.421 69.3177 142.5H25.1355C24.7277 141.795 24.5 141.004 24.5 140.173C24.5 137.286 27.2684 134.817 30.8571 134.817C32.3394 134.817 33.6907 135.249 34.7673 135.959L35.266 136.287L35.5018 135.738C36.3248 133.823 38.5095 132.394 41.1429 132.394C41.498 132.394 41.8506 132.424 42.1917 132.477L42.8524 132.58L42.764 131.917C42.7247 131.622 42.7069 131.325 42.7069 131.018C42.7069 126.386 47.1352 122.5 52.7669 122.5C58.3986 122.5 62.8269 126.386 62.8269 131.018C62.8269 131.33 62.809 131.635 62.7698 131.929Z" fill="white" stroke="black"/>
<path d="M260.04 39.5H216.905C216.015 38.3532 215.5 36.9931 215.5 35.5339C215.5 31.622 219.231 28.3233 224 28.3233H224H224H224H224H224H224H224H224H224H224H224H224H224H224H224H224H224H224H224H224H224H224H224H224H224H224H224H224H224H224.001H224.001H224.001H224.001H224.001H224.001H224.001H224.001H224.001H224.001H224.001H224.001H224.001H224.001H224.001H224.001H224.001H224.001H224.001H224.001H224.001H224.001H224.001H224.001H224.001H224.001H224.001H224.001H224.001H224.001H224.001H224.001H224.001H224.001H224.001H224.001H224.002H224.002H224.002H224.002H224.002H224.002H224.002H224.002H224.002H224.002H224.002H224.002H224.002H224.002H224.002H224.002H224.002H224.002H224.002H224.002H224.002H224.002H224.002H224.002H224.002H224.002H224.002H224.002H224.002H224.002H224.002H224.002H224.002H224.003H224.003H224.003H224.003H224.003H224.003H224.003H224.003H224.003H224.003H224.003H224.003H224.003H224.003H224.003H224.003H224.003H224.003H224.003H224.003H224.003H224.003H224.003H224.003H224.003H224.003H224.003H224.003H224.003H224.003H224.004H224.004H224.004H224.004H224.004H224.004H224.004H224.004H224.004H224.004H224.004H224.004H224.004H224.004H224.004H224.004H224.004H224.004H224.004H224.004H224.004H224.004H224.004H224.004H224.004H224.004H224.004H224.004H224.004H224.005H224.005H224.005H224.005H224.005H224.005H224.005H224.005H224.005H224.005H224.005H224.005H224.005H224.005H224.005H224.005H224.005H224.005H224.005H224.005H224.005H224.005H224.005H224.005H224.005H224.005H224.005H224.006H224.006H224.006H224.006H224.006H224.006H224.006H224.006H224.006H224.006H224.006H224.006H224.006H224.006H224.006H224.006H224.006H224.006H224.006H224.006H224.006H224.006H224.006H224.006H224.006H224.006H224.007H224.007H224.007H224.007H224.007H224.007H224.007H224.007H224.007H224.007H224.007H224.007H224.007H224.007H224.007H224.007H224.007H224.007H224.007H224.007H224.007H224.007H224.007H224.007H224.007H224.008H224.008H224.008H224.008H224.008H224.008H224.008H224.008H224.008H224.008H224.008H224.008H224.008H224.008H224.008H224.008H224.008H224.008H224.008H224.008H224.008H224.008H224.008H224.008H224.009H224.009H224.009H224.009H224.009H224.009H224.009H224.009H224.009H224.009H224.009H224.009H224.009H224.009H224.009H224.009H224.009H224.009H224.009H224.009H224.009H224.009H224.009H224.009H224.01H224.01H224.01H224.01H224.01H224.01H224.01H224.01H224.01H224.01H224.01H224.01H224.01H224.01H224.01H224.01H224.01H224.01H224.01H224.01H224.01H224.01H224.01H224.011H224.011H224.011H224.011H224.011H224.011H224.011H224.011H224.011H224.011H224.011H224.011H224.011H224.011H224.011H224.011H224.011H224.011H224.011H224.011H224.011H224.011H224.011H224.012H224.012H224.012H224.012H224.012H224.012H224.012H224.012H224.012H224.012H224.012H224.012H224.012H224.012H224.012H224.012H224.012H224.012H224.012H224.012H224.012H224.012H224.013H224.013H224.013H224.013H224.013H224.013H224.013H224.013H224.013H224.013H224.013H224.013H224.013H224.013H224.013H224.013H224.013H224.013H224.013H224.013H224.013H224.013H224.014H224.014H224.014H224.014H224.014H224.014H224.014H224.014H224.014H224.014H224.014H224.014H224.014H224.014H224.014H224.014H224.014H224.014H224.014H224.014H224.014H224.014H224.015H224.015H224.015H224.015H224.015H224.015H224.015H224.015H224.015H224.015H224.015H224.015H224.015H224.015H224.015H224.015H224.015H224.015H224.015H224.015H224.015H224.016H224.016H224.016H224.016H224.016H224.016H224.016H224.016H224.016H224.016H224.016H224.016H224.016H224.016H224.016H224.016H224.016H224.016H224.016H224.016H224.016H224.016H224.017H224.017H224.017H224.017H224.017H224.017H224.017H224.017H224.017H224.017H224.017H224.017H224.017H224.017H224.017H224.017H224.017H224.017H224.017H224.017H224.017H224.018H224.018H224.018H224.018H224.018H224.018H224.018H224.018H224.018H224.018H224.018H224.018H224.018H224.018H224.018H224.018H224.018H224.018H224.018H224.018H224.018H224.019H224.019H224.019H224.019H224.019H224.019H224.019H224.019H224.019H224.019H224.019H224.019H224.019H224.019H224.019H224.019H224.019H224.019H224.019H224.019H224.019H224.02H224.02H224.02H224.02H224.02H224.02H224.02H224.02H224.02H224.02H224.02H224.473L224.518 27.8721C224.71 25.9121 226.658 24.2633 229.172 24.2633C229.392 24.2633 229.609 24.2818 229.834 24.3084L230.241 24.3565L230.368 23.9672C231.574 20.2782 235.564 17.5 240.383 17.5C246.201 17.5 250.778 21.5239 250.778 26.3346C250.778 26.3687 250.777 26.4038 250.775 26.4508L250.775 26.4556C250.773 26.4984 250.77 26.5527 250.77 26.6088V27.2368L251.382 27.0961C252.116 26.9273 252.889 26.8346 253.684 26.8346C258.627 26.8346 262.5 30.2547 262.5 34.3159C262.5 36.3147 261.575 38.1452 260.04 39.5Z" fill="white" stroke="black"/>
<path d="M133.35 61.35V53.15C133.35 51.5189 133.998 49.9546 135.151 48.8013C136.305 47.6479 137.869 47 139.5 47C141.131 47 142.695 47.6479 143.849 48.8013C145.002 49.9546 145.65 51.5189 145.65 53.15V61.35C145.65 62.9811 145.002 64.5454 143.849 65.6987C142.695 66.8521 141.131 67.5 139.5 67.5C137.869 67.5 136.305 66.8521 135.151 65.6987C133.998 64.5454 133.35 62.9811 133.35 61.35ZM174.35 108.5C174.35 115.393 172.306 122.131 168.477 127.862C164.647 133.593 159.205 138.059 152.837 140.697C146.469 143.335 139.461 144.025 132.701 142.68C125.941 141.336 119.731 138.017 114.857 133.143C109.983 128.269 106.664 122.059 105.32 115.299C103.975 108.539 104.665 101.531 107.303 95.1635C109.941 88.7955 114.407 83.3527 120.138 79.5233C125.869 75.6939 132.607 73.65 139.5 73.65C148.74 73.6595 157.599 77.3342 164.132 83.8678C170.666 90.4014 174.341 99.2601 174.35 108.5ZM162.05 108.5C162.05 104.04 160.727 99.6802 158.25 95.9719C155.772 92.2636 152.25 89.3733 148.13 87.6665C144.009 85.9598 139.475 85.5132 135.101 86.3833C130.726 87.2534 126.708 89.4011 123.555 92.5547C120.401 95.7084 118.253 99.7264 117.383 104.101C116.513 108.475 116.96 113.009 118.667 117.13C120.373 121.25 123.264 124.772 126.972 127.25C130.68 129.727 135.04 131.05 139.5 131.05C145.479 131.043 151.21 128.665 155.438 124.438C159.665 120.21 162.043 114.479 162.05 108.5ZM100.299 78.0011C100.871 78.5732 101.55 79.027 102.298 79.3366C103.045 79.6462 103.846 79.8055 104.655 79.8055C105.464 79.8055 106.265 79.6462 107.013 79.3366C107.76 79.027 108.439 78.5732 109.011 78.0011C109.583 77.4291 110.037 76.7499 110.347 76.0025C110.656 75.255 110.816 74.4539 110.816 73.6449C110.816 72.8358 110.656 72.0347 110.347 71.2873C110.037 70.5398 109.583 69.8607 109.011 69.2886L102.861 63.1386C101.706 61.9833 100.139 61.3342 98.5051 61.3342C96.8712 61.3342 95.3042 61.9833 94.1489 63.1386C92.9935 64.294 92.3445 65.861 92.3445 67.4949C92.3445 69.1288 92.9935 70.6958 94.1489 71.8511L100.299 78.0011ZM100.299 138.989L94.1489 145.139C93.5768 145.711 93.123 146.39 92.8134 147.137C92.5038 147.885 92.3445 148.686 92.3445 149.495C92.3445 150.304 92.5038 151.105 92.8134 151.852C93.123 152.6 93.5768 153.279 94.1489 153.851C95.3042 155.006 96.8712 155.656 98.5051 155.656C99.3142 155.656 100.115 155.496 100.863 155.187C101.61 154.877 102.289 154.423 102.861 153.851L109.011 147.701C110.167 146.546 110.816 144.979 110.816 143.345C110.816 141.711 110.167 140.144 109.011 138.989C107.856 137.833 106.289 137.184 104.655 137.184C103.021 137.184 101.454 137.833 100.299 138.989ZM174.35 79.8C175.158 79.8006 175.958 79.6421 176.705 79.3334C177.451 79.0248 178.13 78.5721 178.701 78.0011L184.851 71.8511C185.423 71.2791 185.877 70.5999 186.187 69.8525C186.496 69.105 186.656 68.3039 186.656 67.4949C186.656 66.6858 186.496 65.8847 186.187 65.1373C185.877 64.3898 185.423 63.7107 184.851 63.1386C184.279 62.5666 183.6 62.1128 182.852 61.8032C182.105 61.4936 181.304 61.3342 180.495 61.3342C179.686 61.3342 178.885 61.4936 178.137 61.8032C177.39 62.1128 176.711 62.5666 176.139 63.1386L169.989 69.2886C169.123 70.1488 168.534 71.2469 168.294 72.4432C168.055 73.6396 168.177 74.8801 168.644 76.007C169.112 77.1339 169.904 78.0962 170.92 78.7717C171.936 79.4471 173.13 79.805 174.35 79.8ZM178.701 138.999C177.546 137.844 175.979 137.194 174.345 137.194C172.711 137.194 171.144 137.844 169.989 138.999C168.833 140.154 168.184 141.721 168.184 143.355C168.184 144.989 168.833 146.556 169.989 147.711L176.139 153.861C177.294 155.017 178.861 155.666 180.495 155.666C182.129 155.666 183.696 155.017 184.851 153.861C186.006 152.706 186.656 151.139 186.656 149.505C186.656 147.871 186.006 146.304 184.851 145.149L178.701 138.999ZM98.5 108.5C98.5 106.869 97.8521 105.305 96.6987 104.151C95.5454 102.998 93.9811 102.35 92.35 102.35H84.15C82.5189 102.35 80.9546 102.998 79.8013 104.151C78.6479 105.305 78 106.869 78 108.5C78 110.131 78.6479 111.695 79.8013 112.849C80.9546 114.002 82.5189 114.65 84.15 114.65H92.35C93.9811 114.65 95.5454 114.002 96.6987 112.849C97.8521 111.695 98.5 110.131 98.5 108.5ZM139.5 149.5C137.869 149.5 136.305 150.148 135.151 151.301C133.998 152.455 133.35 154.019 133.35 155.65V163.85C133.35 165.481 133.998 167.045 135.151 168.199C136.305 169.352 137.869 170 139.5 170C141.131 170 142.695 169.352 143.849 168.199C145.002 167.045 145.65 165.481 145.65 163.85V155.65C145.65 154.019 145.002 152.455 143.849 151.301C142.695 150.148 141.131 149.5 139.5 149.5ZM194.85 102.35H186.65C185.019 102.35 183.455 102.998 182.301 104.151C181.148 105.305 180.5 106.869 180.5 108.5C180.5 110.131 181.148 111.695 182.301 112.849C183.455 114.002 185.019 114.65 186.65 114.65H194.85C196.481 114.65 198.045 114.002 199.199 112.849C200.352 111.695 201 110.131 201 108.5C201 106.869 200.352 105.305 199.199 104.151C198.045 102.998 196.481 102.35 194.85 102.35Z" fill="white"/>
<defs>
<filter id="filter0_d_37_1602" x="0" y="0" width="283" height="258" filterUnits="userSpaceOnUse" color-interpolation-filters="sRGB">
<feFlood flood-opacity="0" result="BackgroundImageFix"/>
<feColorMatrix in="SourceAlpha" type="matrix" values="0 0 0 0 0 0 0 0 0 0 0 0 0 0 0 0 0 0 127 0" result="hardAlpha"/>
<feOffset dy="20"/>
<feGaussianBlur stdDeviation="24"/>
<feComposite in2="hardAlpha" operator="out"/>
<feColorMatrix type="matrix" values="0 0 0 0 0.0705882 0 0 0 0 0.2 0 0 0 0 0.345098 0 0 0 0.2 0"/>
<feBlend mode="normal" in2="BackgroundImageFix" result="effect1_dropShadow_37_1602"/>
<feBlend mode="normal" in="SourceGraphic" in2="effect1_dropShadow_37_1602" result="shape"/>
</filter>
<linearGradient id="paint0_linear_37_1602" x1="141.5" y1="28" x2="141.5" y2="190" gradientUnits="userSpaceOnUse">
<stop stop-color="#FDD504"/>
<stop offset="1" stop-color="#FD2C2C"/>
</linearGradient>
</defs>
</svg>
