<svg width="283" height="258" viewBox="0 0 283 258" fill="none" xmlns="http://www.w3.org/2000/svg">
<g filter="url(#filter0_d_37_1613)">
<rect x="48" y="28" width="187" height="162" rx="24" fill="url(#paint0_linear_37_1613)" shape-rendering="crispEdges"/>
</g>
<path d="M254.959 71.4893L255.134 71.9392L255.589 71.7803C256.425 71.489 257.337 71.3274 258.296 71.3274C262.348 71.3274 265.5 74.1444 265.5 77.4722C265.5 77.8206 265.463 78.1646 265.396 78.5H216.905C216.642 77.7632 216.5 76.9804 216.5 76.1685C216.5 73.04 218.612 70.2903 221.756 68.9789L222.056 68.8539L222.064 68.5292C222.207 62.487 228.263 57.5 235.19 57.5C242.115 57.5 247.69 62.074 248.272 67.7697L248.324 68.2709L248.824 68.2159C249.068 68.1891 249.31 68.1741 249.558 68.1741C252.114 68.1741 254.222 69.5948 254.959 71.4893Z" fill="white" stroke="black"/>
<path d="M53.7698 50.9291L53.6824 51.5843L54.3366 51.4901C54.7417 51.4318 55.1425 51.3942 55.5517 51.3942C59.4668 51.3942 62.5 54.0886 62.5 57.2548C62.5 58.9107 61.6738 60.421 60.3177 61.5H16.1355C15.7277 60.7947 15.5 60.0044 15.5 59.1731C15.5 56.2855 18.2684 53.8173 21.8571 53.8173C23.3394 53.8173 24.6907 54.2493 25.7673 54.9585L26.266 55.287L26.5018 54.7383C27.3248 52.8229 29.5095 51.3942 32.1429 51.3942C32.498 51.3942 32.8506 51.4242 33.1917 51.4772L33.8524 51.5797L33.764 50.917C33.7247 50.6223 33.7069 50.3255 33.7069 50.0179C33.7069 45.3857 38.1352 41.5 43.7669 41.5C49.3986 41.5 53.8269 45.3857 53.8269 50.0179C53.8269 50.3302 53.809 50.635 53.7698 50.9291Z" fill="white" stroke="black"/>
<path d="M179.469 87.9475C181.229 87.9401 182.916 87.2414 184.165 86.0021L188.928 81.2392C189.63 80.6378 190.201 79.8977 190.603 79.0655C191.006 78.2332 191.232 77.3267 191.268 76.4028C191.304 75.479 191.148 74.5577 190.811 73.6968C190.473 72.836 189.962 72.0541 189.308 71.4004C188.654 70.7466 187.872 70.2351 187.012 69.8978C186.151 69.5605 185.229 69.4049 184.306 69.4406C183.382 69.4762 182.475 69.7025 181.643 70.1052C180.811 70.5078 180.071 71.0782 179.469 71.7804L175.042 76.5433C173.792 77.8002 173.091 79.5005 173.091 81.2727C173.091 83.045 173.792 84.7452 175.042 86.0021C176.224 87.1785 177.803 87.8721 179.469 87.9475ZM141.5 72.25C143.279 72.25 144.986 71.5432 146.244 70.2852C147.502 69.0271 148.208 67.3208 148.208 65.5417V58.8333C148.208 57.0542 147.502 55.3479 146.244 54.0898C144.986 52.8318 143.279 52.125 141.5 52.125C139.721 52.125 138.015 52.8318 136.757 54.0898C135.499 55.3479 134.792 57.0542 134.792 58.8333V65.5417C134.792 67.3208 135.499 69.0271 136.757 70.2852C138.015 71.5432 139.721 72.25 141.5 72.25ZM87.8334 112.5H81.1251C79.3459 112.5 77.6396 113.207 76.3816 114.465C75.1235 115.723 74.4167 117.429 74.4167 119.208C74.4167 120.987 75.1235 122.694 76.3816 123.952C77.6396 125.21 79.3459 125.917 81.1251 125.917H87.8334C89.6126 125.917 91.3189 125.21 92.5769 123.952C93.835 122.694 94.5417 120.987 94.5417 119.208C94.5417 117.429 93.835 115.723 92.5769 114.465C91.3189 113.207 89.6126 112.5 87.8334 112.5ZM98.8351 86.0021C100.085 87.2414 101.771 87.9401 103.531 87.9475C104.414 87.9526 105.289 87.7834 106.106 87.4495C106.924 87.1157 107.667 86.6238 108.294 86.0021C109.543 84.7452 110.245 83.045 110.245 81.2727C110.245 79.5005 109.543 77.8002 108.294 76.5433L103.531 71.7804C102.248 70.6814 100.597 70.1071 98.9085 70.1724C97.2202 70.2376 95.6186 70.9375 94.4239 72.1322C93.2292 73.3269 92.5293 74.9284 92.4641 76.6168C92.3989 78.3051 92.9732 79.9559 94.0722 81.2392L98.8351 86.0021ZM201.875 112.5H195.167C193.388 112.5 191.681 113.207 190.423 114.465C189.165 115.723 188.458 117.429 188.458 119.208C188.458 120.987 189.165 122.694 190.423 123.952C191.681 125.21 193.388 125.917 195.167 125.917H201.875C203.654 125.917 205.361 125.21 206.619 123.952C207.877 122.694 208.583 120.987 208.583 119.208C208.583 117.429 207.877 115.723 206.619 114.465C205.361 113.207 203.654 112.5 201.875 112.5ZM134.792 159.458H114.667C112.888 159.458 111.181 160.165 109.923 161.423C108.665 162.681 107.958 164.388 107.958 166.167C107.958 167.946 108.665 169.652 109.923 170.91C111.181 172.168 112.888 172.875 114.667 172.875H134.792C136.571 172.875 138.277 172.168 139.535 170.91C140.793 169.652 141.5 167.946 141.5 166.167C141.5 164.388 140.793 162.681 139.535 161.423C138.277 160.165 136.571 159.458 134.792 159.458ZM181.75 132.625H175.847C177.541 128.355 178.406 123.802 178.396 119.208C178.396 109.423 174.509 100.038 167.589 93.119C160.67 86.1997 151.285 82.3125 141.5 82.3125C131.715 82.3125 122.33 86.1997 115.411 93.119C108.491 100.038 104.604 109.423 104.604 119.208C104.594 123.802 105.459 128.355 107.153 132.625H101.25C99.4709 132.625 97.7646 133.332 96.5066 134.59C95.2485 135.848 94.5417 137.554 94.5417 139.333C94.5417 141.112 95.2485 142.819 96.5066 144.077C97.7646 145.335 99.4709 146.042 101.25 146.042H181.75C183.529 146.042 185.236 145.335 186.494 144.077C187.752 142.819 188.458 141.112 188.458 139.333C188.458 137.554 187.752 135.848 186.494 134.59C185.236 133.332 183.529 132.625 181.75 132.625ZM160.619 132.625H122.381C119.563 128.718 118.038 124.026 118.021 119.208C118.021 112.981 120.495 107.009 124.898 102.606C129.301 98.2029 135.273 95.7292 141.5 95.7292C147.727 95.7292 153.699 98.2029 158.102 102.606C162.506 107.009 164.979 112.981 164.979 119.208C164.962 124.026 163.437 128.718 160.619 132.625ZM168.333 159.458H161.625C159.846 159.458 158.14 160.165 156.882 161.423C155.624 162.681 154.917 164.388 154.917 166.167C154.917 167.946 155.624 169.652 156.882 170.91C158.14 172.168 159.846 172.875 161.625 172.875H168.333C170.113 172.875 171.819 172.168 173.077 170.91C174.335 169.652 175.042 167.946 175.042 166.167C175.042 164.388 174.335 162.681 173.077 161.423C171.819 160.165 170.113 159.458 168.333 159.458Z" fill="white"/>
<defs>
<filter id="filter0_d_37_1613" x="0" y="0" width="283" height="258" filterUnits="userSpaceOnUse" color-interpolation-filters="sRGB">
<feFlood flood-opacity="0" result="BackgroundImageFix"/>
<feColorMatrix in="SourceAlpha" type="matrix" values="0 0 0 0 0 0 0 0 0 0 0 0 0 0 0 0 0 0 127 0" result="hardAlpha"/>
<feOffset dy="20"/>
<feGaussianBlur stdDeviation="24"/>
<feComposite in2="hardAlpha" operator="out"/>
<feColorMatrix type="matrix" values="0 0 0 0 0.0705882 0 0 0 0 0.2 0 0 0 0 0.345098 0 0 0 0.2 0"/>
<feBlend mode="normal" in2="BackgroundImageFix" result="effect1_dropShadow_37_1613"/>
<feBlend mode="normal" in="SourceGraphic" in2="effect1_dropShadow_37_1613" result="shape"/>
</filter>
<linearGradient id="paint0_linear_37_1613" x1="141.5" y1="28" x2="141.5" y2="190" gradientUnits="userSpaceOnUse">
<stop stop-color="#F5AE91"/>
<stop offset="1" stop-color="#8481FF"/>
</linearGradient>
</defs>
</svg>
